<?xml version="1.0" encoding="UTF-8"?>
<svg width="15px" height="12px" viewBox="0 0 15 12" version="1.1" xmlns="http://www.w3.org/2000/svg" xmlns:xlink="http://www.w3.org/1999/xlink">
    <title>Return</title>
    <g stroke="none" stroke-width="1" fill="" fill-rule="evenodd">
        <g transform="translate(-280.000000, -91.000000)" fill="" fill-rule="nonzero">
            <g transform="translate(280.000000, 91.000000)">
                <path d="M14.0625,4.875 L3.20821875,4.875 L6.49715625,1.602 C6.86414062,1.23675 6.86554687,0.643171875 6.50029687,0.2761875 C6.13504687,-0.09084375 5.54142187,-0.092203125 5.1744375,0.273 L0.2758125,5.148 C0.275484375,5.14828125 0.27525,5.14860938 0.27496875,5.14889063 C-0.091078125,5.51414063 -0.09225,6.10964062 0.274875,6.47610937 C0.275203125,6.47639062 0.2754375,6.47671875 0.27571875,6.477 L5.17434375,11.352 C5.54128125,11.7171562 6.13490625,11.7158906 6.50020312,11.3488125 C6.86545312,10.9818281 6.86404687,10.38825 6.4970625,10.023 L3.20821875,6.75 L14.0625,6.75 C14.5802812,6.75 15,6.33028125 15,5.8125 C15,5.29471875 14.5802812,4.875 14.0625,4.875 Z"></path>
            </g>
        </g>
    </g>
</svg>