<?xml version="1.0" encoding="UTF-8"?>
<svg width="7px" height="7px" viewBox="0 0 7 7" version="1.1" xmlns="http://www.w3.org/2000/svg" xmlns:xlink="http://www.w3.org/1999/xlink">
    <title>mini close</title>
    <g stroke="none" stroke-width="1" fill="" fill-rule="evenodd">
        <g transform="translate(-630.000000, -731.000000)" fill="" fill-rule="nonzero">
            <g transform="translate(536.000000, 247.000000)">
                <g transform="translate(43.000000, 469.000000)">
                    <g transform="translate(54.363961, 18.500000) rotate(-45.000000) translate(-54.363961, -18.500000) translate(49.863961, 14.000000)">
                        <path d="M8.3571398,3.85714286 L5.14288163,3.85714286 L5.14288163,0.642857143 C5.14288163,0.287828571 4.85505169,0 4.50002143,0 C4.14499117,0 3.85716122,0.287828571 3.85716122,0.642857143 L3.85716122,3.85714286 L0.642860204,3.85714286 C0.287829942,3.85714286 0,4.14497143 0,4.5 C0,4.85502857 0.287829942,5.14285714 0.642860204,5.14285714 L3.85716122,5.14285714 L3.85716122,8.35714286 C3.85716122,8.71217143 4.14499117,9 4.50002143,9 C4.85505169,9 5.14288163,8.71217143 5.14288163,8.35714286 L5.14288163,5.14285714 L8.3571398,5.14285714 C8.71217006,5.14285714 9,4.85502857 9,4.5 C9,4.14497143 8.71221292,3.85714286 8.3571398,3.85714286 Z"></path>
                    </g>
                </g>
            </g>
        </g>
    </g>
</svg>